<svg width="69" height="68" viewBox="0 0 69 68" fill="none" xmlns="http://www.w3.org/2000/svg">
<path d="M45.6881 0C54.5696 0 59.0106 0.000317658 62.2301 2.0791C63.7797 3.07973 65.0986 4.3986 66.0992 5.94824C68.178 9.16771 68.1783 13.6087 68.1783 22.4902V31.2285C66.4017 29.8836 64.2445 29.3096 62.3063 29.3096C60.099 29.3096 58.2462 30.177 57.5367 31.2412V18.0762C57.5367 17.9973 57.5361 17.9971 57.4967 17.9971H57.4186C57.3397 17.9971 57.3001 18.0368 57.2213 18.0762C56.1571 18.8645 53.9892 20.3627 49.8112 21.7422C49.4566 21.8604 49.2595 21.9388 49.2594 22.2539V23.5947C49.2595 23.8703 49.3383 24.067 49.7321 24.1064C51.8999 24.3429 52.0582 26.5112 52.0582 28.6396V41.0557C52.0583 47.5591 56.315 50.0029 61.5573 50.0029C64.2278 50.0029 66.4684 49.2549 68.1744 47.9473C68.1571 55.2326 67.9785 59.1413 66.0992 62.0518C65.0986 63.6014 63.7797 64.9203 62.2301 65.9209C59.0106 67.9997 54.5696 68 45.6881 68H23.2448C14.3632 68 9.92223 67.9997 6.70276 65.9209C5.15312 64.9203 3.83424 63.6014 2.83362 62.0518C1.09517 59.3594 0.81088 55.8129 0.764282 49.5293H10.8834C21.2101 49.5293 25.6254 42.9476 25.6256 34.71C25.6256 25.3684 18.8455 19.9678 9.77991 19.9678H0.757446C0.775976 12.7369 0.961657 8.8474 2.83362 5.94824C3.83424 4.3986 5.15312 3.07973 6.70276 2.0791C9.92223 0.000317658 14.3632 0 23.2448 0H45.6881ZM34.9772 17.9971C34.8987 17.9972 34.8594 18.0369 34.7809 18.0762C33.7167 18.8645 31.5487 20.3627 27.3707 21.7422C27.0161 21.8604 26.8191 21.9388 26.819 22.2539V23.5947C26.8191 23.8704 26.8977 24.0671 27.2916 24.1064C29.4594 24.343 29.6168 26.5112 29.6168 28.6396V41.0557C29.6169 47.5589 33.8738 50.0028 39.1158 50.0029C45.5012 50.0029 49.443 45.7454 49.443 39.7148C49.4428 32.0685 44.1217 29.3096 39.8649 29.3096C37.6577 29.3096 35.8058 30.177 35.0963 31.2412V18.0762C35.0963 17.9973 35.0957 17.9971 35.0563 17.9971H34.9772ZM38.1305 32.7783C42.1509 32.7783 44.358 35.9314 44.358 40.9766C44.358 44.2481 43.3337 47.4404 39.5104 47.4404C37.2637 47.4404 35.0963 45.7455 35.0963 41.8828V33.8027C36.0421 33.0935 37.0665 32.7784 38.1305 32.7783ZM60.5719 32.7783C64.5921 32.7785 66.7994 35.9315 66.7994 40.9766C66.7994 44.2481 65.7741 47.4404 61.9508 47.4404C59.7042 47.4403 57.5367 45.7453 57.5367 41.8828V33.8027C58.4827 33.0933 59.5077 32.7783 60.5719 32.7783ZM8.67639 22.333C15.6924 22.333 19.6344 26.9057 19.6344 34.71C19.6343 42.4351 17.4267 46.9677 9.74084 46.9678C6.90308 46.9678 6.82386 45.3519 6.82385 43.2236V22.333H8.67639Z" fill="white"/>
</svg>
