<svg width="117" height="84" viewBox="0 0 117 84" fill="none" xmlns="http://www.w3.org/2000/svg">
<path d="M8.76459 16.3715L36.5263 12.7106V71.2895L8.69373 67.3134C5.42669 66.8467 3 64.0487 3 60.7485V22.9461C3 19.6187 5.46575 16.8065 8.76459 16.3715Z" stroke="#FBBF24" stroke-width="4.42105" stroke-linejoin="round"/>
<path d="M36.5263 30.7632L13.6842 33.3421M36.5263 46.9737L16.2632 48.4474" stroke="#FBBF24" stroke-width="4.42105" stroke-linejoin="round"/>
<path d="M47.8 25C46.9445 25.0951 46.5326 24.5881 46.5326 23.7326V5.03895C46.5326 4.18347 46.9445 3.77158 47.8 3.77158H52.8061C59.4598 3.77158 64.4025 6.52811 64.4025 13.9105C64.4025 20.8811 59.0162 23.8911 52.7427 24.4931L49.9545 24.7782H49.8595L47.8 25ZM52.9329 8.52421H51.1269V19.8988L52.8695 19.7404C56.5449 19.3602 59.8083 17.5225 59.8083 13.9105C59.8083 9.75989 56.5449 8.52421 52.9329 8.52421ZM79.2114 25.9505H76.6767C76.043 25.9505 75.7262 25.6337 75.7262 25V23.6376C74.744 24.5881 73.2548 25.2218 71.8607 25.3485C71.6706 25.3802 71.4805 25.3802 71.3221 25.3802C68.0586 25.3802 65.809 23.1306 65.809 20.1523C65.809 17.3958 67.5517 14.9878 71.9558 14.9878C73.1598 14.9878 74.5222 15.3046 75.7262 15.8116C75.6945 15.5898 75.6628 15.3997 75.6311 15.2096C75.2826 13.6887 74.142 12.8966 72.431 12.8966C71.2587 12.8966 69.928 13.3402 68.6923 14.1006C68.217 14.3858 67.8368 14.1323 67.52 13.5303L67.0764 12.6115L66.6011 11.6926C66.5061 11.5025 66.4427 11.3441 66.3793 11.1857C66.316 10.8688 66.3793 10.6154 66.7279 10.3619C68.217 9.18958 70.53 8.46084 72.938 8.46084C77.3738 8.46084 80.162 11.2174 80.162 15.7165V25C80.162 25.2218 80.1303 25.3802 80.0669 25.5386C79.9085 25.8238 79.6233 25.9505 79.2114 25.9505ZM72.431 21.4197C73.7301 21.4197 75.1875 20.9127 75.5994 19.9622C75.6945 19.7721 75.7262 19.582 75.7262 19.3919V19.2652C74.6489 18.8533 73.4449 18.6315 72.431 18.6315C70.9735 18.6315 70.2448 19.1067 70.2448 20.0256C70.2448 20.9127 71.2587 21.4197 72.431 21.4197ZM84.972 7.60537C83.5146 7.60537 82.2789 6.36968 82.2789 4.88053C82.2789 3.42305 83.5146 2.18737 84.972 2.18737C86.4295 2.18737 87.6652 3.42305 87.6652 4.88053C87.6652 6.36968 86.4295 7.60537 84.972 7.60537ZM87.1899 23.7326C87.1899 24.5881 86.778 25 85.9226 25H84.0215C83.166 25 82.7541 24.5881 82.7541 23.7326V11.0589C82.7541 10.2035 83.166 9.79158 84.0215 9.79158H85.9226C86.778 9.79158 87.1899 10.2035 87.1899 11.0589V23.7326ZM94.6506 23.7326C94.6506 24.5881 94.2387 25 93.3832 25H91.3237C90.4682 25 90.0564 24.5881 90.0564 23.7326V3.45474C90.0564 2.59926 90.4682 2.18737 91.3237 2.18737H93.3832C94.2387 2.18737 94.6506 2.59926 94.6506 3.45474V23.7326ZM104.642 31.6537C102.456 31.6537 99.9213 31.1467 98.3054 29.8477C97.7984 29.4358 97.9569 29.0556 98.1786 28.5169L98.9391 26.6159C99.2876 25.7287 99.5411 25.3802 100.111 25.7287C101.315 26.3941 103.09 27.0595 104.579 27.0595C106.321 27.0595 107.621 26.4258 107.621 24.2713V21.99C106.417 23.8594 104.42 24.7465 102.646 24.7465C99.5728 24.7465 97.2915 22.7504 97.2915 18.1562V9.79158C97.2915 8.9361 97.7034 8.52421 98.5589 8.52421H100.46C101.315 8.52421 101.727 8.9361 101.727 9.79158V16.7304C101.727 19.0434 102.646 20.1523 104.167 20.1523C106.258 20.1523 107.621 18.8533 107.621 15.9383V10.4253C107.621 9.56979 108.032 9.1579 108.888 9.1579H110.789C111.644 9.1579 112.056 9.56979 112.056 10.4253V24.7148C112.056 29.6893 108.793 31.6537 104.642 31.6537ZM53.6933 53.6337H47.7683C46.9445 53.6337 46.5326 53.2218 46.5326 52.3663V33.0389C46.5326 32.1835 46.9445 31.8349 47.8 31.7716L53.3447 31.4547C58.1924 31.1696 60.9173 33.5142 60.9173 36.9361C60.9173 39.2174 59.4915 40.9917 57.8756 41.7838C60.949 42.5442 62.5015 44.5086 62.5015 47.0751C62.5015 51.3841 59.5865 53.6337 53.6933 53.6337ZM52.3942 35.8905L51.1269 35.9856V39.8827H52.8695C55.3409 39.8827 56.3231 39.1857 56.3231 37.7916C56.3231 36.3975 55.3409 35.6687 52.3942 35.8905ZM51.1269 49.1979H54.4537C56.9251 49.1979 57.9073 48.4058 57.9073 46.7899C57.9073 45.2057 56.7033 44.3185 53.82 44.3185H51.1269V49.1979ZM68.9963 51.7326C68.9963 52.5881 68.5844 53 67.7289 53H65.8278C64.9724 53 64.5605 52.5881 64.5605 51.7326V36.8411C64.5605 35.9856 64.9724 35.5737 65.8278 35.5737H67.7289C68.5844 35.5737 68.9963 35.9856 68.9963 36.8411V39.4708C70.0418 37.7599 71.6577 36.7777 73.1469 36.7777C73.8439 36.7777 74.5727 36.9361 74.9846 37.1896C75.238 37.348 75.3014 37.5698 75.2697 37.7916L74.9529 41.4353C74.9212 41.9105 74.636 42.0689 74.0974 41.9422C73.2103 41.7521 72.6083 41.6887 72.0696 41.6887C70.327 41.6887 68.9963 43.0195 68.9963 45.5859V51.7326ZM89.5459 53.9505H87.0112C86.3775 53.9505 86.0607 53.6337 86.0607 53V51.6376C85.0785 52.5881 83.5893 53.2218 82.1952 53.3485C82.0051 53.3802 81.815 53.3802 81.6566 53.3802C78.3931 53.3802 76.1435 51.1306 76.1435 48.1523C76.1435 45.3958 77.8862 42.9878 82.2903 42.9878C83.4943 42.9878 84.8567 43.3046 86.0607 43.8116C86.029 43.5898 85.9973 43.3997 85.9656 43.2096C85.6171 41.6887 84.4765 40.8966 82.7655 40.8966C81.5932 40.8966 80.2625 41.3402 79.0268 42.1006C78.5515 42.3858 78.1713 42.1323 77.8545 41.5303L77.4109 40.6115L76.9356 39.6926C76.8406 39.5025 76.7772 39.3441 76.7138 39.1857C76.6505 38.8688 76.7138 38.6154 77.0624 38.3619C78.5515 37.1896 80.8645 36.4608 83.2725 36.4608C87.7083 36.4608 90.4965 39.2174 90.4965 43.7165V53C90.4965 53.2218 90.4648 53.3802 90.4014 53.5386C90.243 53.8238 89.9578 53.9505 89.5459 53.9505ZM82.7655 49.4197C84.0646 49.4197 85.522 48.9127 85.9339 47.9622C86.029 47.7721 86.0607 47.582 86.0607 47.3919V47.2652C84.9834 46.8533 83.7794 46.6315 82.7655 46.6315C81.308 46.6315 80.5793 47.1067 80.5793 48.0256C80.5793 48.9127 81.5932 49.4197 82.7655 49.4197ZM95.3065 35.6054C93.8491 35.6054 92.6134 34.3697 92.6134 32.8805C92.6134 31.4231 93.8491 30.1874 95.3065 30.1874C96.764 30.1874 97.9997 31.4231 97.9997 32.8805C97.9997 34.3697 96.764 35.6054 95.3065 35.6054ZM97.5244 51.7326C97.5244 52.5881 97.1125 53 96.2571 53H94.356C93.5005 53 93.0886 52.5881 93.0886 51.7326V39.0589C93.0886 38.2035 93.5005 37.7916 94.356 37.7916H96.2571C97.1125 37.7916 97.5244 38.2035 97.5244 39.0589V51.7326ZM104.827 52.3663C104.827 53.2218 104.415 53.6337 103.559 53.6337H101.658C100.803 53.6337 100.391 53.2218 100.391 52.3663V37.1579C100.391 36.3024 100.803 35.8905 101.658 35.8905H103.559C104.415 35.8905 104.827 36.3024 104.827 37.1579V39.5342C106.031 37.6648 108.027 36.7777 109.801 36.7777C112.874 36.7777 115.156 38.7738 115.156 43.368V51.7326C115.156 52.5881 114.744 53 113.888 53H111.987C111.132 53 110.72 52.5881 110.72 51.7326V44.7938C110.72 42.4808 109.801 41.3719 108.28 41.3719C106.189 41.3719 104.827 42.6709 104.827 45.5859V52.3663ZM53.6933 81.6337H47.7683C46.9445 81.6337 46.5326 81.2218 46.5326 80.3663V61.0389C46.5326 60.1835 46.9445 59.8349 47.8 59.7716L53.3447 59.4547C58.1924 59.1696 60.9173 61.5142 60.9173 64.9361C60.9173 67.2174 59.4915 68.9917 57.8756 69.7838C60.949 70.5442 62.5015 72.5086 62.5015 75.0751C62.5015 79.3841 59.5865 81.6337 53.6933 81.6337ZM52.3942 63.8905L51.1269 63.9856V67.8827H52.8695C55.3409 67.8827 56.3231 67.1857 56.3231 65.7916C56.3231 64.3975 55.3409 63.6687 52.3942 63.8905ZM51.1269 77.1979H54.4537C56.9251 77.1979 57.9073 76.4058 57.9073 74.7899C57.9073 73.2057 56.7033 72.3185 53.82 72.3185H51.1269V77.1979ZM66.7784 63.6054C65.3209 63.6054 64.0852 62.3697 64.0852 60.8805C64.0852 59.4231 65.3209 58.1874 66.7784 58.1874C68.2358 58.1874 69.4715 59.4231 69.4715 60.8805C69.4715 62.3697 68.2358 63.6054 66.7784 63.6054ZM68.9963 79.7326C68.9963 80.5881 68.5844 81 67.7289 81H65.8278C64.9724 81 64.5605 80.5881 64.5605 79.7326V67.0589C64.5605 66.2035 64.9724 65.7916 65.8278 65.7916H67.7289C68.5844 65.7916 68.9963 66.2035 68.9963 67.0589V79.7326ZM84.4096 79.9861C82.9522 81.0951 80.861 81.6971 78.96 81.6971C75.5064 81.6971 73.5103 79.5425 73.5103 75.2652V71.1462L71.6726 71.0512C70.9755 71.0195 70.7854 70.6709 70.7854 70.0689V67.5342C70.7854 66.9322 71.229 66.4253 71.8627 66.4569L73.5103 66.552V62.94C73.5103 62.3063 73.8271 61.9895 74.4608 61.9895H76.9955C77.6292 61.9895 77.9461 62.3063 77.9461 62.94V66.8055L82.5086 67.0906C83.2056 67.1223 83.3957 67.4708 83.3957 68.0728V70.6076C83.3957 71.2096 82.9522 71.7165 82.3185 71.6848L77.9461 71.4314V74.4731C77.9461 76.5008 78.7698 77.1662 80.1006 77.1662C80.9244 77.1662 81.8432 76.6909 82.5403 76.2474C83.0155 75.9622 83.4591 76.2157 83.7126 76.8177L84.5364 78.6554C84.7898 79.194 84.9483 79.6059 84.4096 79.9861ZM86.0545 69.8788C86.0545 66.9639 88.2724 64.7777 92.0111 64.7777C93.6904 64.7777 95.8766 65.2213 97.239 66.2352C97.746 66.6154 97.5875 67.0589 97.3658 67.5659L96.7004 69.2135C96.4786 69.7521 96.0033 69.9739 95.5281 69.7838C94.0072 69.1818 92.8666 68.8016 91.5675 68.8016C90.7438 68.8016 90.3319 69.0867 90.3319 69.6571C90.3319 71.9383 98.0628 70.0689 98.0628 75.8038C98.0628 79.9227 94.7993 81.3802 91.8527 81.3802C89.7932 81.3802 87.607 80.8733 86.1179 79.6693C85.6109 79.2574 85.801 78.8455 85.9911 78.3385L86.6248 76.5642C86.8149 76.0256 87.3219 75.7087 87.7971 75.9939C88.8427 76.5642 90.522 77.1979 92.1062 77.1979C93.1518 77.1979 93.7854 76.9761 93.7854 76.3424C93.7854 74.0612 86.0545 75.8038 86.0545 69.8788Z" fill="#FBBF24"/>
</svg>
