<svg width="141" height="134" viewBox="0 0 141 134" fill="none" xmlns="http://www.w3.org/2000/svg">
<path d="M27.6621 42.6504C43.3936 42.6504 55.158 52.0209 55.158 68.2311C55.158 82.5263 47.4974 93.9487 29.5772 93.9487H6.59555C5.91157 93.9487 5.56958 93.6067 5.56958 92.9228V90.8708C5.56958 90.1869 5.91157 89.8449 6.59555 89.8449H7.07433C10.4942 89.6397 11.657 86.9038 11.657 83.3471V53.252C11.657 49.5585 10.4258 46.7542 6.66395 46.7542H6.59555C5.91157 46.7542 5.56958 46.4122 5.56958 45.7283V43.6763C5.56958 42.9923 5.91157 42.6504 6.59555 42.6504H27.6621ZM22.5322 83.0051C22.5322 86.6986 22.669 89.5029 27.5937 89.5029C40.9313 89.5029 44.7615 81.6371 44.7615 68.2311C44.7615 54.6884 37.9218 46.7542 25.7469 46.7542H22.5322V83.0051Z" fill="white"/>
<path d="M62.0849 57.6979C62.0849 54.0044 61.8113 50.2425 58.0494 49.8321C57.3654 49.7637 57.2286 49.4217 57.2286 48.943V46.6174C57.2286 46.0702 57.5706 45.9335 58.1862 45.7283C65.4364 43.3343 69.1983 40.7352 71.045 39.3673C71.1818 39.2989 71.2502 39.2305 71.387 39.2305H71.5238C71.5922 39.2305 71.5922 39.2305 71.5922 39.3673V62.2121C72.8233 60.3654 76.038 58.8606 79.8683 58.8606C87.2553 58.8606 96.489 63.6485 96.489 76.9177C96.489 87.3825 89.6492 94.7695 78.5688 94.7695C69.4719 94.7695 62.0849 90.5288 62.0849 79.2432V57.6979ZM71.5922 80.6796C71.5922 87.3825 75.3541 90.3236 79.2527 90.3236C85.8873 90.3236 87.6657 84.7834 87.6657 79.1064C87.6657 70.3515 83.8354 64.8797 76.8588 64.8797C75.0121 64.8797 73.2337 65.4268 71.5922 66.658V80.6796Z" fill="white"/>
<path d="M101.026 57.6979C101.026 54.0044 100.753 50.2425 96.9908 49.8321C96.3068 49.7637 96.17 49.4217 96.17 48.943V46.6174C96.17 46.0702 96.512 45.9335 97.1276 45.7283C104.378 43.3343 108.14 40.7352 109.986 39.3673C110.123 39.2989 110.192 39.2305 110.328 39.2305H110.465C110.534 39.2305 110.534 39.2305 110.534 39.3673V62.2121C111.765 60.3654 114.979 58.8606 118.81 58.8606C126.197 58.8606 135.43 63.6485 135.43 76.9177C135.43 87.3825 128.591 94.7695 117.51 94.7695C108.413 94.7695 101.026 90.5288 101.026 79.2432V57.6979ZM110.534 80.6796C110.534 87.3825 114.295 90.3236 118.194 90.3236C124.829 90.3236 126.607 84.7834 126.607 79.1064C126.607 70.3515 122.777 64.8797 115.8 64.8797C113.953 64.8797 112.175 65.4268 110.534 66.658V80.6796Z" fill="white"/>
</svg>
