<svg width="68" height="68" viewBox="0 0 68 68" fill="none" xmlns="http://www.w3.org/2000/svg">
<path d="M44.9307 0C53.8122 0 58.2532 0.000317658 61.4727 2.0791C63.0223 3.07973 64.3412 4.3986 65.3418 5.94824C67.4206 9.16771 67.4209 13.6087 67.4209 22.4902V31.2285C65.6442 29.8836 63.487 29.3096 61.5488 29.3096C59.3415 29.3096 57.4888 30.177 56.7793 31.2412V18.0762C56.7793 17.9973 56.7787 17.9971 56.7393 17.9971H56.6611C56.5823 17.9971 56.5427 18.0368 56.4639 18.0762C55.3996 18.8645 53.2317 20.3627 49.0537 21.7422C48.6991 21.8604 48.502 21.9388 48.502 22.2539V23.5947C48.502 23.8703 48.5809 24.067 48.9746 24.1064C51.1425 24.3429 51.3008 26.5112 51.3008 28.6396V41.0557C51.3009 47.5591 55.5576 50.0029 60.7998 50.0029C63.4703 50.0029 65.711 49.2549 67.417 47.9473C67.3997 55.2326 67.2211 59.1413 65.3418 62.0518C64.3412 63.6014 63.0223 64.9203 61.4727 65.9209C58.2532 67.9997 53.8122 68 44.9307 68H22.4873C13.6058 68 9.16478 67.9997 5.94531 65.9209C4.39568 64.9203 3.07679 63.6014 2.07617 62.0518C0.337728 59.3594 0.0534341 55.8129 0.00683594 49.5293H10.126C20.4527 49.5293 24.868 42.9476 24.8682 34.71C24.8682 25.3684 18.0881 19.9678 9.02246 19.9678H0C0.0185301 12.7369 0.204211 8.8474 2.07617 5.94824C3.07679 4.3986 4.39568 3.07973 5.94531 2.0791C9.16478 0.000317658 13.6058 0 22.4873 0H44.9307ZM34.2197 17.9971C34.1413 17.9972 34.102 18.0369 34.0234 18.0762C32.9592 18.8645 30.7912 20.3627 26.6133 21.7422C26.2586 21.8604 26.0616 21.9388 26.0615 22.2539V23.5947C26.0616 23.8704 26.1403 24.0671 26.5342 24.1064C28.702 24.343 28.8594 26.5112 28.8594 28.6396V41.0557C28.8595 47.5589 33.1164 50.0028 38.3584 50.0029C44.7437 50.0029 48.6855 45.7454 48.6855 39.7148C48.6853 32.0685 43.3642 29.3096 39.1074 29.3096C36.9003 29.3096 35.0483 30.177 34.3389 31.2412V18.0762C34.3389 17.9973 34.3382 17.9971 34.2988 17.9971H34.2197ZM37.373 32.7783C41.3934 32.7783 43.6006 35.9314 43.6006 40.9766C43.6006 44.2481 42.5763 47.4404 38.7529 47.4404C36.5062 47.4404 34.3389 45.7455 34.3389 41.8828V33.8027C35.2846 33.0935 36.3091 32.7784 37.373 32.7783ZM59.8145 32.7783C63.8347 32.7785 66.042 35.9315 66.042 40.9766C66.042 44.2481 65.0167 47.4404 61.1934 47.4404C58.9468 47.4403 56.7793 45.7453 56.7793 41.8828V33.8027C57.7252 33.0933 58.7503 32.7783 59.8145 32.7783ZM7.91895 22.333C14.9349 22.333 18.877 26.9057 18.877 34.71C18.8769 42.4351 16.6692 46.9677 8.9834 46.9678C6.14563 46.9678 6.06642 45.3519 6.06641 43.2236V22.333H7.91895Z" fill="white"/>
</svg>
